PathFileType	4	(X/Y/Z)	/Users/itak/Documents/Research/Walk-IL/dataset/trc/00367_00011.trc
DataRate	CameraRate	NumFrames	NumMarkers	Units	OrigDataRate	OrigDataStartFrame	OrigNumFrames
100.000000	100.000000	4	53	mm	100.000000	346	554
Frame#	Time	RPSI			LPSI			L3			STRN			T10			C7			CLAV			RBAK			LBAK			LSHO			LUPA			LAEL			LAOL			LWTS			LWPS			LFRA			LIFD			LHPS			LHTS			RSHO			RUPA			RAEL			RAOL			RWTS			RWPS			RFRA			RIFD			RHTS			RHPS			RBHD			LFHD			RFHD			LBHD			LHIP			RHIP			RASI			LASI			LKNE			LTHI			LANK			LTIP			LTOE			LMT1			LMT5			LHEE			RKNE			RTHI			RANK			RTIP			RTOE			RMT1			RMT5			RHEE			
		X1	Y1	Z1	X2	Y2	Z2	X3	Y3	Z3	X4	Y4	Z4	X5	Y5	Z5	X6	Y6	Z6	X7	Y7	Z7	X8	Y8	Z8	X9	Y9	Z9	X10	Y10	Z10	X11	Y11	Z11	X12	Y12	Z12	X13	Y13	Z13	X14	Y14	Z14	X15	Y15	Z15	X16	Y16	Z16	X17	Y17	Z17	X18	Y18	Z18	X19	Y19	Z19	X20	Y20	Z20	X21	Y21	Z21	X22	Y22	Z22	X23	Y23	Z23	X24	Y24	Z24	X25	Y25	Z25	X26	Y26	Z26	X27	Y27	Z27	X28	Y28	Z28	X29	Y29	Z29	X30	Y30	Z30	X31	Y31	Z31	X32	Y32	Z32	X33	Y33	Z33	X34	Y34	Z34	X35	Y35	Z35	X36	Y36	Z36	X37	Y37	Z37	X38	Y38	Z38	X39	Y39	Z39	X40	Y40	Z40	X41	Y41	Z41	X42	Y42	Z42	X43	Y43	Z43	X44	Y44	Z44	X45	Y45	Z45	X46	Y46	Z46	X47	Y47	Z47	X48	Y48	Z48	X49	Y49	Z49	X50	Y50	Z50	X51	Y51	Z51	X52	Y52	Z52	X53	Y53	Z53	

347	3.46	-281.4205017089844	941.693359375	612.611572265625	-160.1616973876953	946.2054443359375	566.7548828125	-218.11572265625	1001.420959472656	584.75830078125	-152.2620697021484	1196.610107421875	795.3338012695312	-209.7399597167969	1119.842651367188	560.4361572265625	-185.8905944824219	1369.97705078125	590.1696166992188	-161.2825927734375	1320.869873046875	747.5599365234375	-256.4770202636719	1227.865356445312	561.8660888671875	-88.56133270263672	1333.209106445312	558.6287231445312	-18.46538352966309	1353.471313476562	631.4046630859375	49.15556335449219	1234.430541992188	609.0614624023438	92.24212646484375	1039.12841796875	645.5938110351562	23.75457000732422	1009.008544921875	603.9807739257812	104.5889892578125	846.5263671875	817.1868896484375	148.6136474609375	820.6284790039062	770.548095703125	117.0149688720703	943.7747802734375	682.6182861328125	117.6346740722656	695.9937744140625	881.4581298828125	147.8354949951172	754.2855834960938	793.5521240234375	129.5390472412109	777.0240478515625	851.0186157226562	-335.5399169921875	1358.71826171875	674.8351440429688	-400.6559143066406	1297.115600585938	671.42822265625	-442.0536499023438	1034.56005859375	645.1370239257812	-352.2113037109375	1025.555786132812	615.62841796875	-425.1792602539062	794.2951049804688	735.650146484375	-489.3831481933594	790.456787109375	693.9696044921875	-459.5912780761719	966.878662109375	661.836181640625	-450.2287292480469	620.6646118164062	716.9989624023438	-447.0799865722656	687.578857421875	742.079833984375	-492.4139099121094	704.5000610351562	692.681396484375	-259.5189208984375	1580.260498046875	664.8948974609375	-106.2711944580078	1582.358642578125	805.1102905273438	-206.4160003662109	1581.77880859375	818.3676147460938	-122.3320236206055	1578.30126953125	619.39892578125	-29.02078056335449	892.485595703125	606.981201171875	-347.9702758789062	895.851806640625	733.613037109375	-270.2133483886719	929.5966796875	809.2207641601562	-39.07013320922852	919.4934692382812	742.7147827148438	-35.23777008056641	441.4673767089844	616.7879028320312	-22.89129638671875	574.592041015625	630.1214599609375	-172.4178771972656	155.739013671875	312.42138671875	-90.72541809082031	285.0016784667969	458.6798095703125	-162.2397003173828	35.0493049621582	455.6824035644531	-222.9440612792969	46.57235717773438	428.3343505859375	-119.1633682250977	62.75124740600586	375.8280944824219	-243.775146484375	176.0268707275391	323.1633605957031	-250.8649291992188	455.5392456054688	891.6197509765625	-311.39501953125	709.111572265625	851.5026245117188	-192.3518218994141	50.60884475708008	901.296142578125	-225.4066925048828	341.5570678710938	921.8856201171875	-115.070671081543	57.20461273193359	1085.831298828125	-80.66679382324219	45.42275238037109	1026.161865234375	-194.5837097167969	39.10562133789062	1004.221252441406	-150.1434173583984	48.68130874633789	847.40380859375	
348	3.47	-279.3741455078125	943.3668823242188	620.7019653320312	-157.7751007080078	947.1795043945312	575.4732666015625	-216.1888122558594	1002.736694335938	594.1021728515625	-150.7491607666016	1198.528442382812	803.9346923828125	-207.8947143554688	1121.031616210938	569.5003662109375	-183.9659729003906	1371.305541992188	598.1840209960938	-159.4526062011719	1322.651733398438	755.716064453125	-254.7837677001953	1229.188232421875	570.43798828125	-86.70989227294922	1334.395263671875	566.7743530273438	-16.63541412353516	1354.776489257812	639.5193481445312	50.63603210449219	1235.630615234375	617.1505737304688	91.85326385498047	1039.73388671875	652.4846801757812	22.85873031616211	1010.510437011719	610.8850708007812	103.5560150146484	844.3132934570312	821.42529296875	147.2856750488281	818.9949951171875	774.240966796875	116.0482482910156	943.68017578125	688.371826171875	115.5964736938477	692.419921875	882.7662353515625	146.1097717285156	752.177001953125	796.0243530273438	128.0777282714844	773.9593505859375	853.880615234375	-333.6073303222656	1360.591796875	682.8749389648438	-398.6866149902344	1298.93701171875	679.8965454101562	-439.7214660644531	1035.946166992188	657.098876953125	-350.0723266601562	1026.822631835938	627.01318359375	-420.6911315917969	797.4764404296875	752.0838623046875	-485.0648498535156	792.2802734375	710.9115600585938	-456.7729797363281	968.3074340820312	675.0313720703125	-444.802734375	623.2133178710938	737.7244873046875	-442.1883544921875	691.6436157226562	761.899169921875	-487.6283874511719	706.3472290039062	711.7353515625	-257.4975891113281	1581.874267578125	672.4457397460938	-104.4497222900391	1583.958618164062	812.8917846679688	-204.6182403564453	1583.447998046875	825.9918823242188	-120.2670059204102	1579.763916015625	627.1456909179688	-27.06321144104004	893.280517578125	616.8912353515625	-347.2015075683594	897.6226196289062	741.2728271484375	-269.6847534179688	931.6189575195312	817.5001831054688	-38.38032531738281	920.9129638671875	752.27978515625	-28.62020492553711	442.1226501464844	633.244140625	-17.95361709594727	574.7615966796875	645.0563354492188	-167.7348327636719	165.2363891601562	323.7442321777344	-84.97682189941406	289.5155029296875	472.3323974609375	-160.7264251708984	33.46578979492188	458.4453125	-220.6118927001953	50.72462463378906	433.2214050292969	-116.8783493041992	66.66165924072266	380.9305419921875	-238.6452178955078	186.2188415527344	335.658203125	-251.1201629638672	456.0172119140625	896.3373413085938	-310.6140441894531	710.5320434570312	858.9010620117188	-192.4307098388672	50.82075881958008	901.6139526367188	-225.5919036865234	341.3187255859375	925.3058471679688	-114.9668884277344	55.37227249145508	1086.36865234375	-80.52894592285156	44.67882537841797	1026.433349609375	-194.6716003417969	38.88156127929688	1004.491271972656	-150.3461761474609	49.00297927856445	847.6929321289062	
349	3.48	-277.4501037597656	944.9422607421875	628.5465698242188	-155.5453338623047	948.029541015625	583.8533325195312	-214.4300384521484	1004.070373535156	603.1085205078125	-149.2181701660156	1200.372436523438	812.3095092773438	-206.2163696289062	1122.290161132812	578.4009399414062	-182.112548828125	1372.66796875	606.0904541015625	-157.6062927246094	1324.391357421875	763.718017578125	-253.2530059814453	1230.567626953125	578.86474609375	-84.9461669921875	1335.596069335938	574.7347412109375	-14.83973026275635	1356.04736328125	647.4152221679688	52.03467178344727	1236.779174804688	624.93505859375	91.49153900146484	1040.34619140625	659.2318115234375	22.04469299316406	1011.940307617188	617.6901245117188	102.5948867797852	842.0870361328125	825.4306640625	145.9869537353516	817.3784790039062	777.6636352539062	115.1331024169922	943.60986328125	693.97265625	113.6612777709961	688.831298828125	883.7340087890625	144.4892730712891	750.1112670898438	798.19482421875	126.7128524780273	770.904541015625	856.4501342773438	-331.7017822265625	1362.492065429688	690.9033813476562	-396.7485656738281	1300.801391601562	688.3646240234375	-437.5746765136719	1037.425903320312	669.076171875	-348.164306640625	1028.1318359375	638.3367919921875	-416.2849731445312	800.9842529296875	768.6978759765625	-480.8370056152344	794.3484497070312	728.1103515625	-454.1036987304688	969.8450317382812	688.2608642578125	-439.3846130371094	626.2088012695312	758.9674682617188	-437.2959594726562	695.8951416015625	781.8775634765625	-482.8843994140625	708.5057983398438	731.1676025390625	-255.4629669189453	1583.483032226562	679.8583984375	-102.6168365478516	1585.587158203125	820.541748046875	-202.8165283203125	1585.162719726562	833.4832763671875	-118.1890487670898	1581.194213867188	634.7606811523438	-25.2473316192627	894.001953125	626.42431640625	-346.4501037597656	899.2996826171875	748.6620483398438	-269.0863037109375	933.5484008789062	825.5142211914062	-37.66934204101562	922.3834228515625	761.4577026367188	-21.92731857299805	442.9441833496094	649.9777221679688	-12.94775772094727	575.073974609375	660.006591796875	-162.3895568847656	174.8574523925781	335.9220581054688	-78.98884582519531	293.9729309082031	486.6490783691406	-158.7833862304688	31.65801620483398	462.1813659667969	-217.7749176025391	55.4024543762207	439.0210266113281	-114.1849670410156	71.29244995117188	387.05078125	-233.0026397705078	196.3231353759766	348.6903991699219	-251.3862762451172	456.4053039550781	900.6878051757812	-309.7882080078125	711.8966674804688	866.0601806640625	-192.5098571777344	50.99232482910156	901.8612670898438	-225.718994140625	341.1222229003906	928.4591064453125	-114.9235153198242	53.85259628295898	1086.781127929688	-80.42514801025391	44.11837005615234	1026.599243164062	-194.7876281738281	38.77087783813477	1004.672729492188	-150.5563507080078	49.24269485473633	847.8997192382812	
350	3.49	-275.6557006835938	946.421875	636.165771484375	-153.4819641113281	948.7428588867188	591.9012451171875	-212.8323211669922	1005.417053222656	611.7632446289062	-147.640625	1202.118530273438	820.43896484375	-204.7110748291016	1123.618041992188	587.0874633789062	-180.3323516845703	1374.060791015625	613.8829345703125	-155.7414703369141	1326.067626953125	771.5631713867188	-251.8785705566406	1231.994750976562	587.1351318359375	-83.27809143066406	1336.807861328125	582.4984130859375	-13.072434425354	1357.269165039062	655.08251953125	53.33687210083008	1237.84130859375	632.3980102539062	91.16737365722656	1040.942993164062	665.8343505859375	21.3289966583252	1013.274536132812	624.3709106445312	101.7014846801758	839.8561401367188	829.2052001953125	144.7221374511719	815.7772827148438	780.8348999023438	114.2890472412109	943.556640625	699.4192504882812	111.8375778198242	685.275634765625	884.417724609375	142.9702911376953	748.1032104492188	800.1002807617188	125.4257507324219	767.8817749023438	858.761474609375	-329.824951171875	1364.395141601562	698.9251098632812	-394.845458984375	1302.677490234375	696.8461303710938	-435.6346435546875	1038.965576171875	681.0734252929688	-346.5216674804688	1029.4462890625	649.5687866210938	-411.9278564453125	804.785888671875	785.4329223632812	-476.7003784179688	796.6484375	745.5391845703125	-451.5832824707031	971.4545288085938	701.5215454101562	-433.9807739257812	629.6914672851562	780.6490478515625	-432.387939453125	700.3612060546875	801.982177734375	-478.1784973144531	710.978271484375	750.9395751953125	-253.4201812744141	1585.079223632812	687.1410522460938	-100.7714767456055	1587.232543945312	828.0584716796875	-201.0041656494141	1586.912963867188	840.8409423828125	-116.0991668701172	1582.582397460938	642.2447509765625	-23.56643104553223	894.646240234375	635.562255859375	-345.6470336914062	900.9292602539062	755.8735961914062	-268.3963928222656	935.353515625	833.2883911132812	-36.90128326416016	923.8743896484375	770.2437133789062	-15.25998878479004	443.9791870117188	666.9503173828125	-7.962859153747559	575.5435180664062	674.946044921875	-156.5000762939453	184.3455047607422	348.9021606445312	-72.83401489257812	298.3163452148438	501.5870971679688	-156.3628692626953	29.8473072052002	467.0991821289062	-214.3782806396484	60.47370147705078	445.9170227050781	-110.9928436279297	76.50530242919922	394.3919982910156	-226.9713592529297	206.1122436523438	362.2028198242188	-251.6009674072266	456.67236328125	904.7232055664062	-308.9501342773438	713.1032104492188	872.8922119140625	-192.5754547119141	51.13272094726562	902.0643310546875	-225.7390594482422	340.9707946777344	931.37939453125	-114.899772644043	52.60573959350586	1087.089965820312	-80.32928466796875	43.69048690795898	1026.680297851562	-194.9037628173828	38.73012542724609	1004.790283203125	-150.7622985839844	49.43133926391602	848.0425415039062	
